<?xml version="1.0" encoding="UTF-8"?>
<!--Generator: Apple Native CoreSVG 232.5-->
<!DOCTYPE svg
PUBLIC "-//W3C//DTD SVG 1.1//EN"
       "http://www.w3.org/Graphics/SVG/1.1/DTD/svg11.dtd">
<svg version="1.1" xmlns="http://www.w3.org/2000/svg" xmlns:xlink="http://www.w3.org/1999/xlink" width="3300" height="2200">
 <!--glyph: "uni1019D2.medium", point size: 100.0, font version: "19.2d2e1", template writer version: "128"-->
 <style>.SFSymbolsPreviewWireframe {fill:none;opacity:1.0;stroke:black;stroke-width:0.5}
</style>
 <g id="Notes">
  <rect height="2200" id="artboard" style="fill:white;opacity:1" width="3300" x="0" y="0"/>
  <line style="fill:none;stroke:black;opacity:1;stroke-width:0.5;" x1="263" x2="3036" y1="292" y2="292"/>
  <text style="stroke:none;fill:black;font-family:sans-serif;font-size:13;font-weight:bold;" transform="matrix(1 0 0 1 263 322)">Weight/Scale Variations</text>
  <text style="stroke:none;fill:black;font-family:sans-serif;font-size:13;text-anchor:middle;" transform="matrix(1 0 0 1 559.711 322)">Ultralight</text>
  <text style="stroke:none;fill:black;font-family:sans-serif;font-size:13;text-anchor:middle;" transform="matrix(1 0 0 1 856.422 322)">Thin</text>
  <text style="stroke:none;fill:black;font-family:sans-serif;font-size:13;text-anchor:middle;" transform="matrix(1 0 0 1 1153.13 322)">Light</text>
  <text style="stroke:none;fill:black;font-family:sans-serif;font-size:13;text-anchor:middle;" transform="matrix(1 0 0 1 1449.84 322)">Regular</text>
  <text style="stroke:none;fill:black;font-family:sans-serif;font-size:13;text-anchor:middle;" transform="matrix(1 0 0 1 1746.56 322)">Medium</text>
  <text style="stroke:none;fill:black;font-family:sans-serif;font-size:13;text-anchor:middle;" transform="matrix(1 0 0 1 2043.27 322)">Semibold</text>
  <text style="stroke:none;fill:black;font-family:sans-serif;font-size:13;text-anchor:middle;" transform="matrix(1 0 0 1 2339.98 322)">Bold</text>
  <text style="stroke:none;fill:black;font-family:sans-serif;font-size:13;text-anchor:middle;" transform="matrix(1 0 0 1 2636.69 322)">Heavy</text>
  <text style="stroke:none;fill:black;font-family:sans-serif;font-size:13;text-anchor:middle;" transform="matrix(1 0 0 1 2933.4 322)">Black</text>
  <line style="fill:none;stroke:black;opacity:1;stroke-width:0.5;" x1="263" x2="3036" y1="1903" y2="1903"/>
  <g transform="matrix(0.2 0 0 0.2 263 1933)">
   <path d="m46.2402 4.15039c21.5332 0 39.4531-17.8711 39.4531-39.4043s-17.9688-39.4043-39.502-39.4043c-21.4844 0-39.3555 17.8711-39.3555 39.4043s17.9199 39.4043 39.4043 39.4043Zm0-7.42188c-17.7246 0-31.8848-14.209-31.8848-31.9824s14.1113-31.9824 31.8359-31.9824c17.7734 0 32.0312 14.209 32.0312 31.9824s-14.209 31.9824-31.9824 31.9824Zm-17.9688-31.9824c0 2.14844 1.51367 3.61328 3.75977 3.61328h10.498v10.5957c0 2.19727 1.46484 3.71094 3.61328 3.71094 2.24609 0 3.71094-1.51367 3.71094-3.71094v-10.5957h10.5957c2.19727 0 3.71094-1.46484 3.71094-3.61328 0-2.19727-1.51367-3.71094-3.71094-3.71094h-10.5957v-10.5469c0-2.24609-1.46484-3.75977-3.71094-3.75977-2.14844 0-3.61328 1.51367-3.61328 3.75977v10.5469h-10.498c-2.24609 0-3.75977 1.51367-3.75977 3.71094Z"/>
  </g>
  <g transform="matrix(0.2 0 0 0.2 281.506 1933)">
   <path d="m58.5449 14.5508c27.2461 0 49.8047-22.6074 49.8047-49.8047 0-27.2461-22.6074-49.8047-49.8535-49.8047-27.1973 0-49.7559 22.5586-49.7559 49.8047 0 27.1973 22.6074 49.8047 49.8047 49.8047Zm0-8.30078c-23.0469 0-41.4551-18.457-41.4551-41.5039s18.3594-41.5039 41.4062-41.5039 41.5527 18.457 41.5527 41.5039-18.457 41.5039-41.5039 41.5039Zm-22.6562-41.5039c0 2.39258 1.66016 4.00391 4.15039 4.00391h14.3555v14.4043c0 2.44141 1.66016 4.15039 4.05273 4.15039 2.44141 0 4.15039-1.66016 4.15039-4.15039v-14.4043h14.4043c2.44141 0 4.15039-1.61133 4.15039-4.00391 0-2.44141-1.70898-4.15039-4.15039-4.15039h-14.4043v-14.3555c0-2.49023-1.70898-4.19922-4.15039-4.19922-2.39258 0-4.05273 1.70898-4.05273 4.19922v14.3555h-14.3555c-2.49023 0-4.15039 1.70898-4.15039 4.15039Z"/>
  </g>
  <g transform="matrix(0.2 0 0 0.2 304.924 1933)">
   <path d="m74.8535 28.3203c34.8145 0 63.623-28.8086 63.623-63.5742 0-34.8145-28.8574-63.623-63.6719-63.623-34.7656 0-63.5254 28.8086-63.5254 63.623 0 34.7656 28.8086 63.5742 63.5742 63.5742Zm0-9.08203c-30.1758 0-54.4434-24.3164-54.4434-54.4922 0-30.2246 24.2188-54.4922 54.3945-54.4922 30.2246 0 54.541 24.2676 54.541 54.4922 0 30.1758-24.2676 54.4922-54.4922 54.4922Zm-28.8574-54.4922c0 2.58789 1.85547 4.39453 4.58984 4.39453h19.7266v19.7754c0 2.68555 1.85547 4.58984 4.44336 4.58984 2.68555 0 4.54102-1.85547 4.54102-4.58984v-19.7754h19.7754c2.68555 0 4.58984-1.80664 4.58984-4.39453 0-2.73438-1.85547-4.58984-4.58984-4.58984h-19.7754v-19.7266c0-2.73438-1.85547-4.63867-4.54102-4.63867-2.58789 0-4.44336 1.9043-4.44336 4.63867v19.7266h-19.7266c-2.73438 0-4.58984 1.85547-4.58984 4.58984Z"/>
  </g>
  <text style="stroke:none;fill:black;font-family:sans-serif;font-size:13;font-weight:bold;" transform="matrix(1 0 0 1 263 1953)">Design Variations</text>
  <text style="stroke:none;fill:black;font-family:sans-serif;font-size:13;" transform="matrix(1 0 0 1 263 1971)">Symbols are supported in up to nine weights and three scales.</text>
  <text style="stroke:none;fill:black;font-family:sans-serif;font-size:13;" transform="matrix(1 0 0 1 263 1989)">For optimal layout with text and other symbols, vertically align</text>
  <text style="stroke:none;fill:black;font-family:sans-serif;font-size:13;" transform="matrix(1 0 0 1 263 2007)">symbols with the adjacent text.</text>
  <line style="fill:none;stroke:#00AEEF;stroke-width:0.5;opacity:1.0;" x1="776" x2="776" y1="1919" y2="1933"/>
  <g transform="matrix(0.2 0 0 0.2 776 1933)">
   <path d="m16.5527 0.78125c2.58789 0 3.85742-0.976562 4.78516-3.71094l6.29883-17.2363h28.8086l6.29883 17.2363c0.927734 2.73438 2.19727 3.71094 4.73633 3.71094 2.58789 0 4.24805-1.5625 4.24805-4.00391 0-0.830078-0.146484-1.61133-0.537109-2.63672l-22.9004-60.9863c-1.12305-2.97852-3.125-4.49219-6.25-4.49219-3.02734 0-5.07812 1.46484-6.15234 4.44336l-22.9004 61.084c-0.390625 1.02539-0.537109 1.80664-0.537109 2.63672 0 2.44141 1.5625 3.95508 4.10156 3.95508Zm13.4766-28.3691 11.8652-32.8613h0.244141l11.8652 32.8613Z"/>
  </g>
  <line style="fill:none;stroke:#00AEEF;stroke-width:0.5;opacity:1.0;" x1="792.836" x2="792.836" y1="1919" y2="1933"/>
  <text style="stroke:none;fill:black;font-family:sans-serif;font-size:13;font-weight:bold;" transform="matrix(1 0 0 1 776 1953)">Margins</text>
  <text style="stroke:none;fill:black;font-family:sans-serif;font-size:13;" transform="matrix(1 0 0 1 776 1971)">Leading and trailing margins on the left and right side of each symbol</text>
  <text style="stroke:none;fill:black;font-family:sans-serif;font-size:13;" transform="matrix(1 0 0 1 776 1989)">can be adjusted by modifying the x-location of the margin guidelines.</text>
  <text style="stroke:none;fill:black;font-family:sans-serif;font-size:13;" transform="matrix(1 0 0 1 776 2007)">Modifications are automatically applied proportionally to all</text>
  <text style="stroke:none;fill:black;font-family:sans-serif;font-size:13;" transform="matrix(1 0 0 1 776 2025)">scales and weights.</text>
  <g transform="matrix(0.2 0 0 0.2 1289 1933)">
   <path d="m14.209 9.32617 8.49609 8.54492c4.29688 4.3457 9.22852 4.05273 13.8672-1.07422l53.4668-58.9355-4.83398-4.88281-53.0762 58.3984c-1.75781 2.00195-3.41797 2.49023-5.76172 0.146484l-5.85938-5.81055c-2.34375-2.29492-1.80664-4.00391 0.195312-5.81055l57.373-54.0039-4.88281-4.83398-57.959 54.4434c-4.93164 4.58984-5.32227 9.47266-1.02539 13.8184Zm32.0801-90.9668c-2.09961 2.05078-2.24609 4.93164-1.07422 6.88477 1.17188 1.80664 3.4668 2.97852 6.68945 2.14844 7.32422-1.70898 14.9414-2.00195 22.0703 2.68555l-2.92969 7.27539c-1.70898 4.15039-0.830078 7.08008 1.85547 9.81445l11.4746 11.5723c2.44141 2.44141 4.49219 2.53906 7.32422 2.05078l5.32227-0.976562 3.32031 3.36914-0.195312 2.7832c-0.195312 2.49023 0.439453 4.39453 2.88086 6.78711l3.80859 3.71094c2.39258 2.39258 5.46875 2.53906 7.8125 0.195312l14.5508-14.5996c2.34375-2.34375 2.24609-5.32227-0.146484-7.71484l-3.85742-3.80859c-2.39258-2.39258-4.24805-3.17383-6.64062-2.97852l-2.88086 0.244141-3.22266-3.17383 1.2207-5.61523c0.634766-2.83203-0.146484-5.0293-3.07617-7.95898l-10.9863-10.9375c-16.6992-16.6016-38.8672-16.2109-53.3203-1.75781Zm7.4707 1.85547c12.1582-8.88672 28.6133-7.37305 39.7461 3.75977l12.1582 12.0605c1.17188 1.17188 1.36719 2.09961 1.02539 3.80859l-1.61133 7.42188 7.51953 7.42188 4.93164-0.292969c1.26953-0.0488281 1.66016 0.0488281 2.63672 1.02539l2.88086 2.88086-12.207 12.207-2.88086-2.88086c-0.976562-0.976562-1.12305-1.36719-1.07422-2.68555l0.341797-4.88281-7.4707-7.42188-7.61719 1.26953c-1.61133 0.341797-2.34375 0.195312-3.56445-0.976562l-10.0098-10.0098c-1.26953-1.17188-1.41602-2.00195-0.634766-3.85742l4.39453-10.4492c-7.8125-7.27539-17.9688-10.4004-28.125-7.42188-0.78125 0.195312-1.07422-0.439453-0.439453-0.976562Z"/>
  </g>
  <text style="stroke:none;fill:black;font-family:sans-serif;font-size:13;font-weight:bold;" transform="matrix(1 0 0 1 1289 1953)">Exporting</text>
  <text style="stroke:none;fill:black;font-family:sans-serif;font-size:13;" transform="matrix(1 0 0 1 1289 1971)">Symbols should be outlined when exporting to ensure the</text>
  <text style="stroke:none;fill:black;font-family:sans-serif;font-size:13;" transform="matrix(1 0 0 1 1289 1989)">design is preserved when submitting to Xcode.</text>
  <text id="template-version" style="stroke:none;fill:black;font-family:sans-serif;font-size:13;text-anchor:end;" transform="matrix(1 0 0 1 3036 1933)">Template v.5.0</text>
  <text style="stroke:none;fill:black;font-family:sans-serif;font-size:13;text-anchor:end;" transform="matrix(1 0 0 1 3036 1951)">Requires Xcode 15 or greater</text>
  <text id="descriptive-name" style="stroke:none;fill:black;font-family:sans-serif;font-size:13;text-anchor:end;" transform="matrix(1 0 0 1 3036 1969)">Generated from calendar.day.timeline.leading</text>
  <text style="stroke:none;fill:black;font-family:sans-serif;font-size:13;text-anchor:end;" transform="matrix(1 0 0 1 3036 1987)">Typeset at 100.0 points</text>
  <text style="stroke:none;fill:black;font-family:sans-serif;font-size:13;" transform="matrix(1 0 0 1 263 726)">Small</text>
  <text style="stroke:none;fill:black;font-family:sans-serif;font-size:13;" transform="matrix(1 0 0 1 263 1156)">Medium</text>
  <text style="stroke:none;fill:black;font-family:sans-serif;font-size:13;" transform="matrix(1 0 0 1 263 1586)">Large</text>
 </g>
 <g id="Guides">
  <g id="H-reference" style="fill:#27AAE1;stroke:none;" transform="matrix(1 0 0 1 339 696)">
   <path d="M0.993654 0L3.63775 0L29.3281-67.1323L30.0303-67.1323L30.0303-70.459L28.1226-70.459ZM11.6885-24.4799L46.9815-24.4799L46.2315-26.7285L12.4385-26.7285ZM55.1196 0L57.7637 0L30.6382-70.459L29.4326-70.459L29.4326-67.1323Z"/>
  </g>
  <line id="Baseline-S" style="fill:none;stroke:#27AAE1;opacity:1;stroke-width:0.5;" x1="263" x2="3036" y1="696" y2="696"/>
  <line id="Capline-S" style="fill:none;stroke:#27AAE1;opacity:1;stroke-width:0.5;" x1="263" x2="3036" y1="625.541" y2="625.541"/>
  <g id="H-reference" style="fill:#27AAE1;stroke:none;" transform="matrix(1 0 0 1 339 1126)">
   <path d="M0.993654 0L3.63775 0L29.3281-67.1323L30.0303-67.1323L30.0303-70.459L28.1226-70.459ZM11.6885-24.4799L46.9815-24.4799L46.2315-26.7285L12.4385-26.7285ZM55.1196 0L57.7637 0L30.6382-70.459L29.4326-70.459L29.4326-67.1323Z"/>
  </g>
  <line id="Baseline-M" style="fill:none;stroke:#27AAE1;opacity:1;stroke-width:0.5;" x1="263" x2="3036" y1="1126" y2="1126"/>
  <line id="Capline-M" style="fill:none;stroke:#27AAE1;opacity:1;stroke-width:0.5;" x1="263" x2="3036" y1="1055.54" y2="1055.54"/>
  <g id="H-reference" style="fill:#27AAE1;stroke:none;" transform="matrix(1 0 0 1 339 1556)">
   <path d="M0.993654 0L3.63775 0L29.3281-67.1323L30.0303-67.1323L30.0303-70.459L28.1226-70.459ZM11.6885-24.4799L46.9815-24.4799L46.2315-26.7285L12.4385-26.7285ZM55.1196 0L57.7637 0L30.6382-70.459L29.4326-70.459L29.4326-67.1323Z"/>
  </g>
  <line id="Baseline-L" style="fill:none;stroke:#27AAE1;opacity:1;stroke-width:0.5;" x1="263" x2="3036" y1="1556" y2="1556"/>
  <line id="Capline-L" style="fill:none;stroke:#27AAE1;opacity:1;stroke-width:0.5;" x1="263" x2="3036" y1="1485.54" y2="1485.54"/>
  <line id="left-margin-Ultralight-S" style="fill:none;stroke:#00AEEF;stroke-width:0.5;opacity:1.0;" x1="506.232" x2="506.232" y1="600.785" y2="720.121"/>
  <line id="right-margin-Ultralight-S" style="fill:none;stroke:#00AEEF;stroke-width:0.5;opacity:1.0;" x1="613.191" x2="613.191" y1="600.785" y2="720.121"/>
  <line id="left-margin-Regular-S" style="fill:none;stroke:#00AEEF;stroke-width:0.5;opacity:1.0;" x1="1393.28" x2="1393.28" y1="600.785" y2="720.121"/>
  <line id="right-margin-Regular-S" style="fill:none;stroke:#00AEEF;stroke-width:0.5;opacity:1.0;" x1="1506.41" x2="1506.41" y1="600.785" y2="720.121"/>
  <line id="left-margin-Black-S" style="fill:none;stroke:#00AEEF;stroke-width:0.5;opacity:1.0;" x1="2871.88" x2="2871.88" y1="600.785" y2="720.121"/>
  <line id="right-margin-Black-S" style="fill:none;stroke:#FF3B30;stroke-width:0.5;opacity:1.0;" x1="2994.92" x2="2994.92" y1="600.785" y2="720.121"/>
 </g>
 <g id="Symbols">
  <g id="Black-S" transform="matrix(1 0 0 1 2871.88 696)">
   <path class="SFSymbolsPreviewWireframe" d="M28.2715-12.3047C28.2715-2.73438 33.9355 2.92969 43.5059 2.92969L98.0957 2.92969C107.666 2.92969 113.33-2.73438 113.33-12.3047L113.33-58.1055C113.33-67.6758 107.666-73.3398 98.0957-73.3398L43.5059-73.3398C33.9355-73.3398 28.2715-67.6758 28.2715-58.1055ZM42.4316-14.5508L42.4316-55.8594C42.4316-58.3008 43.5059-59.1797 45.752-59.1797L95.8496-59.1797C98.0957-59.1797 99.1699-58.3008 99.1699-55.8594L99.1699-14.5508C99.1699-12.1094 98.0957-11.2305 95.8496-11.2305L45.752-11.2305C43.5059-11.2305 42.4316-12.1094 42.4316-14.5508ZM28.2715-24.5117L113.33-24.5117C119.434-24.5117 124.072-29.1504 124.072-35.2539C124.072-41.3574 119.434-45.9961 113.33-45.9961L28.2715-45.9961C22.168-45.9961 17.5293-41.3574 17.5293-35.2539C17.5293-29.1504 22.168-24.5117 28.2715-24.5117ZM16.3086-62.9883C19.4336-62.9883 21.9238-65.4785 21.9238-68.6035C21.9238-71.7285 19.4336-74.2188 16.3086-74.2188C13.1836-74.2188 10.6934-71.7285 10.6934-68.6035C10.6934-65.4785 13.1836-62.9883 16.3086-62.9883ZM16.3086-46.3867C19.4336-46.3867 21.9238-48.877 21.9238-52.002C21.9238-55.127 19.4336-57.6172 16.3086-57.6172C13.1836-57.6172 10.6934-55.127 10.6934-52.002C10.6934-48.877 13.1836-46.3867 16.3086-46.3867ZM16.1133-28.9062C18.3594-28.9062 20.3613-30.0781 21.4844-31.8359L113.281-31.8359C115.332-31.8359 116.699-33.2031 116.699-35.2539C116.699-37.3047 115.332-38.6719 113.281-38.6719L21.4844-38.6719C20.3613-40.4297 18.3594-41.6016 16.1133-41.6016C12.5977-41.6016 9.76562-38.7695 9.76562-35.2539C9.76562-31.7383 12.5977-28.9062 16.1133-28.9062ZM16.3086-12.8906C19.4336-12.8906 21.9238-15.3809 21.9238-18.5059C21.9238-21.6309 19.4336-24.1211 16.3086-24.1211C13.1836-24.1211 10.6934-21.6309 10.6934-18.5059C10.6934-15.3809 13.1836-12.8906 16.3086-12.8906ZM16.3086 3.71094C19.4336 3.71094 21.9238 1.2207 21.9238-1.9043C21.9238-5.0293 19.4336-7.51953 16.3086-7.51953C13.1836-7.51953 10.6934-5.0293 10.6934-1.9043C10.6934 1.2207 13.1836 3.71094 16.3086 3.71094Z"/>
  </g>
  <g id="Regular-S" transform="matrix(1 0 0 1 1393.28 696)">
   <path class="SFSymbolsPreviewWireframe" d="M26.8066-11.9141C26.8066-3.71094 30.9082 0.390625 39.2578 0.390625L90.918 0.390625C99.1699 0.390625 103.369-3.71094 103.369-11.9141L103.369-58.4961C103.369-66.6992 99.1699-70.8008 90.918-70.8008L39.2578-70.8008C30.9082-70.8008 26.8066-66.6992 26.8066-58.4961ZM33.8379-11.4746L33.8379-58.9355C33.8379-62.1094 35.5469-63.7207 38.5742-63.7207L91.6016-63.7207C94.5801-63.7207 96.2891-62.1094 96.2891-58.9355L96.2891-11.4746C96.2891-8.30078 94.5801-6.68945 91.6016-6.68945L38.5742-6.68945C35.5469-6.68945 33.8379-8.30078 33.8379-11.4746ZM26.8066-26.4648L103.369-26.4648C108.203-26.4648 112.109-30.3711 112.109-35.2051C112.109-40.0391 108.203-43.9453 103.369-43.9453L26.8066-43.9453C21.9727-43.9453 18.0176-40.0391 18.0176-35.2051C18.0176-30.3711 21.9727-26.4648 26.8066-26.4648ZM15.3809-61.0352C18.1152-61.0352 20.3613-63.2812 20.3613-66.0156C20.3613-68.7988 18.1152-71.0449 15.3809-71.0449C12.5977-71.0449 10.3516-68.7988 10.3516-66.0156C10.3516-63.2812 12.5977-61.0352 15.3809-61.0352ZM15.3809-45.6543C18.1152-45.6543 20.3613-47.9004 20.3613-50.6836C20.3613-53.418 18.1152-55.6641 15.3809-55.6641C12.5977-55.6641 10.3516-53.418 10.3516-50.6836C10.3516-47.9004 12.5977-45.6543 15.3809-45.6543ZM15.3809-29.6387C17.2852-29.6387 18.9941-30.6152 19.9707-32.1289L103.369-32.1289C105.029-32.1289 106.396-33.4961 106.396-35.2051C106.396-36.9141 105.029-38.2812 103.369-38.2812L20.0684-38.2812C19.0918-39.8438 17.2852-40.8691 15.3809-40.8691C12.3047-40.8691 9.76562-38.3301 9.76562-35.2539C9.76562-32.1777 12.3047-29.6387 15.3809-29.6387ZM15.3809-14.9902C18.1152-14.9902 20.3613-17.1875 20.3613-19.9707C20.3613-22.7539 18.1152-25 15.3809-25C12.5977-25 10.3516-22.7539 10.3516-19.9707C10.3516-17.1875 12.5977-14.9902 15.3809-14.9902ZM15.3809 0.390625C18.1152 0.390625 20.3613-1.85547 20.3613-4.58984C20.3613-7.37305 18.1152-9.61914 15.3809-9.61914C12.5977-9.61914 10.3516-7.37305 10.3516-4.58984C10.3516-1.85547 12.5977 0.390625 15.3809 0.390625Z"/>
  </g>
  <g id="Ultralight-S" transform="matrix(1 0 0 1 506.232 696)">
   <path class="SFSymbolsPreviewWireframe" d="M22.2657-11.5508C22.2657-5.11864 25.7315-1.562 32.2647-1.562L87.1944-1.562C93.7207-1.562 97.1934-5.02782 97.1934-11.5508L97.1934-58.7686C97.1934-65.2915 93.7207-68.7573 87.1944-68.7573L32.2647-68.7573C25.7315-68.7573 22.2657-65.2007 22.2657-58.7686ZM24.4835-11.6108L24.4835-58.7085C24.4835-63.8804 27.3277-66.5361 32.3077-66.5361L87.1514-66.5361C92.3096-66.5361 94.9722-63.8804 94.9722-58.7085L94.9722-11.6108C94.9722-6.43898 92.3096-3.78323 87.1514-3.78323L32.3077-3.78323C27.3277-3.78323 24.4835-6.43898 24.4835-11.6108ZM22.2657-31.0512L97.1934-31.0512C99.4844-31.0512 101.347-32.914 101.347-35.2051C101.347-37.4961 99.4844-39.3589 97.1934-39.3589L22.2657-39.3589C19.9746-39.3589 18.1084-37.4961 18.1084-35.2051C18.1084-32.914 19.9746-31.0512 22.2657-31.0512ZM13.3374-60.8535C15.0274-60.8535 16.3653-62.1914 16.3653-63.8814C16.3653-65.5293 15.0274-66.9126 13.3374-66.9126C11.6895-66.9126 10.3062-65.5293 10.3062-63.8814C10.3062-62.1914 11.6895-60.8535 13.3374-60.8535ZM13.3374-46.5171C15.0274-46.5171 16.3653-47.9004 16.3653-49.5483C16.3653-51.2383 15.0274-52.6216 13.3374-52.6216C11.6895-52.6216 10.3062-51.2383 10.3062-49.5483C10.3062-47.9004 11.6895-46.5171 13.3374-46.5171ZM13.292-31.7275C14.8784-31.7275 16.1787-32.7041 16.6104-34.1269L97.1934-34.1269C97.8091-34.1269 98.2681-34.6313 98.2681-35.2051C98.2681-35.7788 97.8091-36.2832 97.1934-36.2832L16.6172-36.2832C16.231-37.7549 14.8784-38.7803 13.292-38.7803C11.3511-38.7803 9.76562-37.1948 9.76562-35.2539C9.76562-33.313 11.3511-31.7275 13.292-31.7275ZM13.3374-17.8965C15.0274-17.8965 16.3653-19.2764 16.3653-20.9243C16.3653-22.6177 15.0274-24.001 13.3374-24.001C11.6895-24.001 10.3062-22.6177 10.3062-20.9243C10.3062-19.2764 11.6895-17.8965 13.3374-17.8965ZM13.3374-3.60544C15.0274-3.60544 16.3653-4.94334 16.3653-6.63328C16.3653-8.28124 15.0274-9.66455 13.3374-9.66455C11.6895-9.66455 10.3062-8.28124 10.3062-6.63328C10.3062-4.94334 11.6895-3.60544 13.3374-3.60544Z"/>
  </g>
 </g>
</svg>
