<?xml version="1.0" encoding="UTF-8"?>
<!--Generator: Apple Native CoreSVG 232.5-->
<!DOCTYPE svg
PUBLIC "-//W3C//DTD SVG 1.1//EN"
       "http://www.w3.org/Graphics/SVG/1.1/DTD/svg11.dtd">
<svg version="1.1" xmlns="http://www.w3.org/2000/svg" xmlns:xlink="http://www.w3.org/1999/xlink" width="3300" height="2200">
 <!--glyph: "uni1008CC.medium", point size: 100.0, font version: "19.2d2e1", template writer version: "128"-->
 <style>.SFSymbolsPreviewWireframe {fill:none;opacity:1.0;stroke:black;stroke-width:0.5}
</style>
 <g id="Notes">
  <rect height="2200" id="artboard" style="fill:white;opacity:1" width="3300" x="0" y="0"/>
  <line style="fill:none;stroke:black;opacity:1;stroke-width:0.5;" x1="263" x2="3036" y1="292" y2="292"/>
  <text style="stroke:none;fill:black;font-family:sans-serif;font-size:13;font-weight:bold;" transform="matrix(1 0 0 1 263 322)">Weight/Scale Variations</text>
  <text style="stroke:none;fill:black;font-family:sans-serif;font-size:13;text-anchor:middle;" transform="matrix(1 0 0 1 559.711 322)">Ultralight</text>
  <text style="stroke:none;fill:black;font-family:sans-serif;font-size:13;text-anchor:middle;" transform="matrix(1 0 0 1 856.422 322)">Thin</text>
  <text style="stroke:none;fill:black;font-family:sans-serif;font-size:13;text-anchor:middle;" transform="matrix(1 0 0 1 1153.13 322)">Light</text>
  <text style="stroke:none;fill:black;font-family:sans-serif;font-size:13;text-anchor:middle;" transform="matrix(1 0 0 1 1449.84 322)">Regular</text>
  <text style="stroke:none;fill:black;font-family:sans-serif;font-size:13;text-anchor:middle;" transform="matrix(1 0 0 1 1746.56 322)">Medium</text>
  <text style="stroke:none;fill:black;font-family:sans-serif;font-size:13;text-anchor:middle;" transform="matrix(1 0 0 1 2043.27 322)">Semibold</text>
  <text style="stroke:none;fill:black;font-family:sans-serif;font-size:13;text-anchor:middle;" transform="matrix(1 0 0 1 2339.98 322)">Bold</text>
  <text style="stroke:none;fill:black;font-family:sans-serif;font-size:13;text-anchor:middle;" transform="matrix(1 0 0 1 2636.69 322)">Heavy</text>
  <text style="stroke:none;fill:black;font-family:sans-serif;font-size:13;text-anchor:middle;" transform="matrix(1 0 0 1 2933.4 322)">Black</text>
  <line style="fill:none;stroke:black;opacity:1;stroke-width:0.5;" x1="263" x2="3036" y1="1903" y2="1903"/>
  <g transform="matrix(0.2 0 0 0.2 263 1933)">
   <path d="m46.2402 4.15039c21.5332 0 39.4531-17.8711 39.4531-39.4043s-17.9688-39.4043-39.502-39.4043c-21.4844 0-39.3555 17.8711-39.3555 39.4043s17.9199 39.4043 39.4043 39.4043Zm0-7.42188c-17.7246 0-31.8848-14.209-31.8848-31.9824s14.1113-31.9824 31.8359-31.9824c17.7734 0 32.0312 14.209 32.0312 31.9824s-14.209 31.9824-31.9824 31.9824Zm-17.9688-31.9824c0 2.14844 1.51367 3.61328 3.75977 3.61328h10.498v10.5957c0 2.19727 1.46484 3.71094 3.61328 3.71094 2.24609 0 3.71094-1.51367 3.71094-3.71094v-10.5957h10.5957c2.19727 0 3.71094-1.46484 3.71094-3.61328 0-2.19727-1.51367-3.71094-3.71094-3.71094h-10.5957v-10.5469c0-2.24609-1.46484-3.75977-3.71094-3.75977-2.14844 0-3.61328 1.51367-3.61328 3.75977v10.5469h-10.498c-2.24609 0-3.75977 1.51367-3.75977 3.71094Z"/>
  </g>
  <g transform="matrix(0.2 0 0 0.2 281.506 1933)">
   <path d="m58.5449 14.5508c27.2461 0 49.8047-22.6074 49.8047-49.8047 0-27.2461-22.6074-49.8047-49.8535-49.8047-27.1973 0-49.7559 22.5586-49.7559 49.8047 0 27.1973 22.6074 49.8047 49.8047 49.8047Zm0-8.30078c-23.0469 0-41.4551-18.457-41.4551-41.5039s18.3594-41.5039 41.4062-41.5039 41.5527 18.457 41.5527 41.5039-18.457 41.5039-41.5039 41.5039Zm-22.6562-41.5039c0 2.39258 1.66016 4.00391 4.15039 4.00391h14.3555v14.4043c0 2.44141 1.66016 4.15039 4.05273 4.15039 2.44141 0 4.15039-1.66016 4.15039-4.15039v-14.4043h14.4043c2.44141 0 4.15039-1.61133 4.15039-4.00391 0-2.44141-1.70898-4.15039-4.15039-4.15039h-14.4043v-14.3555c0-2.49023-1.70898-4.19922-4.15039-4.19922-2.39258 0-4.05273 1.70898-4.05273 4.19922v14.3555h-14.3555c-2.49023 0-4.15039 1.70898-4.15039 4.15039Z"/>
  </g>
  <g transform="matrix(0.2 0 0 0.2 304.924 1933)">
   <path d="m74.8535 28.3203c34.8145 0 63.623-28.8086 63.623-63.5742 0-34.8145-28.8574-63.623-63.6719-63.623-34.7656 0-63.5254 28.8086-63.5254 63.623 0 34.7656 28.8086 63.5742 63.5742 63.5742Zm0-9.08203c-30.1758 0-54.4434-24.3164-54.4434-54.4922 0-30.2246 24.2188-54.4922 54.3945-54.4922 30.2246 0 54.541 24.2676 54.541 54.4922 0 30.1758-24.2676 54.4922-54.4922 54.4922Zm-28.8574-54.4922c0 2.58789 1.85547 4.39453 4.58984 4.39453h19.7266v19.7754c0 2.68555 1.85547 4.58984 4.44336 4.58984 2.68555 0 4.54102-1.85547 4.54102-4.58984v-19.7754h19.7754c2.68555 0 4.58984-1.80664 4.58984-4.39453 0-2.73438-1.85547-4.58984-4.58984-4.58984h-19.7754v-19.7266c0-2.73438-1.85547-4.63867-4.54102-4.63867-2.58789 0-4.44336 1.9043-4.44336 4.63867v19.7266h-19.7266c-2.73438 0-4.58984 1.85547-4.58984 4.58984Z"/>
  </g>
  <text style="stroke:none;fill:black;font-family:sans-serif;font-size:13;font-weight:bold;" transform="matrix(1 0 0 1 263 1953)">Design Variations</text>
  <text style="stroke:none;fill:black;font-family:sans-serif;font-size:13;" transform="matrix(1 0 0 1 263 1971)">Symbols are supported in up to nine weights and three scales.</text>
  <text style="stroke:none;fill:black;font-family:sans-serif;font-size:13;" transform="matrix(1 0 0 1 263 1989)">For optimal layout with text and other symbols, vertically align</text>
  <text style="stroke:none;fill:black;font-family:sans-serif;font-size:13;" transform="matrix(1 0 0 1 263 2007)">symbols with the adjacent text.</text>
  <line style="fill:none;stroke:#00AEEF;stroke-width:0.5;opacity:1.0;" x1="776" x2="776" y1="1919" y2="1933"/>
  <g transform="matrix(0.2 0 0 0.2 776 1933)">
   <path d="m16.5527 0.78125c2.58789 0 3.85742-0.976562 4.78516-3.71094l6.29883-17.2363h28.8086l6.29883 17.2363c0.927734 2.73438 2.19727 3.71094 4.73633 3.71094 2.58789 0 4.24805-1.5625 4.24805-4.00391 0-0.830078-0.146484-1.61133-0.537109-2.63672l-22.9004-60.9863c-1.12305-2.97852-3.125-4.49219-6.25-4.49219-3.02734 0-5.07812 1.46484-6.15234 4.44336l-22.9004 61.084c-0.390625 1.02539-0.537109 1.80664-0.537109 2.63672 0 2.44141 1.5625 3.95508 4.10156 3.95508Zm13.4766-28.3691 11.8652-32.8613h0.244141l11.8652 32.8613Z"/>
  </g>
  <line style="fill:none;stroke:#00AEEF;stroke-width:0.5;opacity:1.0;" x1="792.836" x2="792.836" y1="1919" y2="1933"/>
  <text style="stroke:none;fill:black;font-family:sans-serif;font-size:13;font-weight:bold;" transform="matrix(1 0 0 1 776 1953)">Margins</text>
  <text style="stroke:none;fill:black;font-family:sans-serif;font-size:13;" transform="matrix(1 0 0 1 776 1971)">Leading and trailing margins on the left and right side of each symbol</text>
  <text style="stroke:none;fill:black;font-family:sans-serif;font-size:13;" transform="matrix(1 0 0 1 776 1989)">can be adjusted by modifying the x-location of the margin guidelines.</text>
  <text style="stroke:none;fill:black;font-family:sans-serif;font-size:13;" transform="matrix(1 0 0 1 776 2007)">Modifications are automatically applied proportionally to all</text>
  <text style="stroke:none;fill:black;font-family:sans-serif;font-size:13;" transform="matrix(1 0 0 1 776 2025)">scales and weights.</text>
  <g transform="matrix(0.2 0 0 0.2 1289 1933)">
   <path d="m14.209 9.32617 8.49609 8.54492c4.29688 4.3457 9.22852 4.05273 13.8672-1.07422l53.4668-58.9355-4.83398-4.88281-53.0762 58.3984c-1.75781 2.00195-3.41797 2.49023-5.76172 0.146484l-5.85938-5.81055c-2.34375-2.29492-1.80664-4.00391 0.195312-5.81055l57.373-54.0039-4.88281-4.83398-57.959 54.4434c-4.93164 4.58984-5.32227 9.47266-1.02539 13.8184Zm32.0801-90.9668c-2.09961 2.05078-2.24609 4.93164-1.07422 6.88477 1.17188 1.80664 3.4668 2.97852 6.68945 2.14844 7.32422-1.70898 14.9414-2.00195 22.0703 2.68555l-2.92969 7.27539c-1.70898 4.15039-0.830078 7.08008 1.85547 9.81445l11.4746 11.5723c2.44141 2.44141 4.49219 2.53906 7.32422 2.05078l5.32227-0.976562 3.32031 3.36914-0.195312 2.7832c-0.195312 2.49023 0.439453 4.39453 2.88086 6.78711l3.80859 3.71094c2.39258 2.39258 5.46875 2.53906 7.8125 0.195312l14.5508-14.5996c2.34375-2.34375 2.24609-5.32227-0.146484-7.71484l-3.85742-3.80859c-2.39258-2.39258-4.24805-3.17383-6.64062-2.97852l-2.88086 0.244141-3.22266-3.17383 1.2207-5.61523c0.634766-2.83203-0.146484-5.0293-3.07617-7.95898l-10.9863-10.9375c-16.6992-16.6016-38.8672-16.2109-53.3203-1.75781Zm7.4707 1.85547c12.1582-8.88672 28.6133-7.37305 39.7461 3.75977l12.1582 12.0605c1.17188 1.17188 1.36719 2.09961 1.02539 3.80859l-1.61133 7.42188 7.51953 7.42188 4.93164-0.292969c1.26953-0.0488281 1.66016 0.0488281 2.63672 1.02539l2.88086 2.88086-12.207 12.207-2.88086-2.88086c-0.976562-0.976562-1.12305-1.36719-1.07422-2.68555l0.341797-4.88281-7.4707-7.42188-7.61719 1.26953c-1.61133 0.341797-2.34375 0.195312-3.56445-0.976562l-10.0098-10.0098c-1.26953-1.17188-1.41602-2.00195-0.634766-3.85742l4.39453-10.4492c-7.8125-7.27539-17.9688-10.4004-28.125-7.42188-0.78125 0.195312-1.07422-0.439453-0.439453-0.976562Z"/>
  </g>
  <text style="stroke:none;fill:black;font-family:sans-serif;font-size:13;font-weight:bold;" transform="matrix(1 0 0 1 1289 1953)">Exporting</text>
  <text style="stroke:none;fill:black;font-family:sans-serif;font-size:13;" transform="matrix(1 0 0 1 1289 1971)">Symbols should be outlined when exporting to ensure the</text>
  <text style="stroke:none;fill:black;font-family:sans-serif;font-size:13;" transform="matrix(1 0 0 1 1289 1989)">design is preserved when submitting to Xcode.</text>
  <text id="template-version" style="stroke:none;fill:black;font-family:sans-serif;font-size:13;text-anchor:end;" transform="matrix(1 0 0 1 3036 1933)">Template v.5.0</text>
  <text style="stroke:none;fill:black;font-family:sans-serif;font-size:13;text-anchor:end;" transform="matrix(1 0 0 1 3036 1951)">Requires Xcode 15 or greater</text>
  <text id="descriptive-name" style="stroke:none;fill:black;font-family:sans-serif;font-size:13;text-anchor:end;" transform="matrix(1 0 0 1 3036 1969)">Generated from gearshape.fill</text>
  <text style="stroke:none;fill:black;font-family:sans-serif;font-size:13;text-anchor:end;" transform="matrix(1 0 0 1 3036 1987)">Typeset at 100.0 points</text>
  <text style="stroke:none;fill:black;font-family:sans-serif;font-size:13;" transform="matrix(1 0 0 1 263 726)">Small</text>
  <text style="stroke:none;fill:black;font-family:sans-serif;font-size:13;" transform="matrix(1 0 0 1 263 1156)">Medium</text>
  <text style="stroke:none;fill:black;font-family:sans-serif;font-size:13;" transform="matrix(1 0 0 1 263 1586)">Large</text>
 </g>
 <g id="Guides">
  <g id="H-reference" style="fill:#27AAE1;stroke:none;" transform="matrix(1 0 0 1 339 696)">
   <path d="M0.993654 0L3.63775 0L29.3281-67.1323L30.0303-67.1323L30.0303-70.459L28.1226-70.459ZM11.6885-24.4799L46.9815-24.4799L46.2315-26.7285L12.4385-26.7285ZM55.1196 0L57.7637 0L30.6382-70.459L29.4326-70.459L29.4326-67.1323Z"/>
  </g>
  <line id="Baseline-S" style="fill:none;stroke:#27AAE1;opacity:1;stroke-width:0.5;" x1="263" x2="3036" y1="696" y2="696"/>
  <line id="Capline-S" style="fill:none;stroke:#27AAE1;opacity:1;stroke-width:0.5;" x1="263" x2="3036" y1="625.541" y2="625.541"/>
  <g id="H-reference" style="fill:#27AAE1;stroke:none;" transform="matrix(1 0 0 1 339 1126)">
   <path d="M0.993654 0L3.63775 0L29.3281-67.1323L30.0303-67.1323L30.0303-70.459L28.1226-70.459ZM11.6885-24.4799L46.9815-24.4799L46.2315-26.7285L12.4385-26.7285ZM55.1196 0L57.7637 0L30.6382-70.459L29.4326-70.459L29.4326-67.1323Z"/>
  </g>
  <line id="Baseline-M" style="fill:none;stroke:#27AAE1;opacity:1;stroke-width:0.5;" x1="263" x2="3036" y1="1126" y2="1126"/>
  <line id="Capline-M" style="fill:none;stroke:#27AAE1;opacity:1;stroke-width:0.5;" x1="263" x2="3036" y1="1055.54" y2="1055.54"/>
  <g id="H-reference" style="fill:#27AAE1;stroke:none;" transform="matrix(1 0 0 1 339 1556)">
   <path d="M0.993654 0L3.63775 0L29.3281-67.1323L30.0303-67.1323L30.0303-70.459L28.1226-70.459ZM11.6885-24.4799L46.9815-24.4799L46.2315-26.7285L12.4385-26.7285ZM55.1196 0L57.7637 0L30.6382-70.459L29.4326-70.459L29.4326-67.1323Z"/>
  </g>
  <line id="Baseline-L" style="fill:none;stroke:#27AAE1;opacity:1;stroke-width:0.5;" x1="263" x2="3036" y1="1556" y2="1556"/>
  <line id="Capline-L" style="fill:none;stroke:#27AAE1;opacity:1;stroke-width:0.5;" x1="263" x2="3036" y1="1485.54" y2="1485.54"/>
  <line id="left-margin-Ultralight-S" style="fill:none;stroke:#00AEEF;stroke-width:0.5;opacity:1.0;" x1="513.804" x2="513.804" y1="600.785" y2="720.121"/>
  <line id="right-margin-Ultralight-S" style="fill:none;stroke:#00AEEF;stroke-width:0.5;opacity:1.0;" x1="605.618" x2="605.618" y1="600.785" y2="720.121"/>
  <line id="left-margin-Regular-S" style="fill:none;stroke:#00AEEF;stroke-width:0.5;opacity:1.0;" x1="1402.85" x2="1402.85" y1="600.785" y2="720.121"/>
  <line id="right-margin-Regular-S" style="fill:none;stroke:#00AEEF;stroke-width:0.5;opacity:1.0;" x1="1496.84" x2="1496.84" y1="600.785" y2="720.121"/>
  <line id="left-margin-Black-S" style="fill:none;stroke:#00AEEF;stroke-width:0.5;opacity:1.0;" x1="2882.57" x2="2882.57" y1="600.785" y2="720.121"/>
  <line id="right-margin-Black-S" style="fill:none;stroke:#00AEEF;stroke-width:0.5;opacity:1.0;" x1="2984.23" x2="2984.23" y1="600.785" y2="720.121"/>
 </g>
 <g id="Symbols">
  <g id="Black-S" transform="matrix(1 0 0 1 2882.57 696)">
   <path class="SFSymbolsPreviewWireframe" d="M47.4121 8.69141L54.248 8.69141C57.9102 8.69141 60.8398 6.39648 61.6211 2.88086L63.2324-3.80859C63.6719-3.95508 64.0625-4.15039 64.4531-4.29688L70.2637-0.683594C73.291 1.17188 77.0508 0.78125 79.5898-1.70898L84.4238-6.54297C86.9629-9.08203 87.3047-12.9883 85.3516-15.9668L81.8359-21.7285C81.9824-22.0703 82.1289-22.4121 82.2754-22.8027L89.0137-24.4141C92.5293-25.1953 94.8242-28.125 94.8242-31.7871L94.8242-38.4766C94.8242-42.0898 92.5293-45.0195 89.0137-45.8496L82.373-47.4121C82.2266-47.8027 82.0801-48.1934 81.8848-48.5352L85.4492-54.4922C87.4023-57.6172 87.0605-61.377 84.4238-63.8672L79.4922-68.75C76.9531-70.9961 73.584-71.4355 70.5566-69.8242L64.4531-66.0645C64.0625-66.2598 63.6719-66.4062 63.2812-66.6016L61.6211-73.3887C60.8398-76.9043 57.9102-79.1992 54.248-79.1992L47.4121-79.1992C43.75-79.1992 40.8203-76.9043 40.0391-73.3398L38.4277-66.6504C37.9883-66.5039 37.5488-66.3086 37.1582-66.1133L31.1035-69.8242C28.0273-71.4355 24.707-71.0449 22.1191-68.7012L17.2363-63.8672C14.5996-61.377 14.2578-57.6172 16.2109-54.4922L19.7754-48.5352C19.5801-48.1934 19.4336-47.8027 19.2871-47.4121L12.6465-45.8496C9.13086-45.0195 6.83594-42.0898 6.83594-38.4766L6.83594-31.7871C6.83594-28.125 9.13086-25.1953 12.6465-24.4141L19.3848-22.8027C19.5312-22.4121 19.6777-22.0703 19.8242-21.7285L16.3086-15.9668C14.3555-12.9883 14.6973-9.08203 17.2363-6.54297L22.0703-1.70898C24.6094 0.78125 28.3691 1.17188 31.3965-0.683594L37.207-4.29688C37.5977-4.15039 37.9883-3.95508 38.4277-3.80859L40.0391 2.88086C40.8203 6.39648 43.75 8.69141 47.4121 8.69141ZM50.8301-22.4121C43.7988-22.4121 38.0371-28.1738 38.0371-35.2539C38.0371-42.2363 43.7988-47.998 50.8301-47.998C57.8613-47.998 63.623-42.2363 63.623-35.2539C63.623-28.1738 57.8613-22.4121 50.8301-22.4121Z"/>
  </g>
  <g id="Regular-S" transform="matrix(1 0 0 1 1402.85 696)">
   <path class="SFSymbolsPreviewWireframe" d="M43.5547 4.93164L50.4395 4.93164C52.3926 4.93164 53.8574 3.75977 54.2969 1.85547L56.2988-6.68945C57.9102-7.22656 59.4238-7.8125 60.791-8.49609L68.2617-3.90625C69.8242-2.92969 71.7285-3.07617 73.0469-4.39453L77.8809-9.22852C79.1992-10.5469 79.3945-12.5488 78.3203-14.1602L73.7793-21.582C74.4629-22.9492 75.0977-24.4629 75.5371-25.8789L84.1797-27.9297C86.0352-28.3203 87.1582-29.7852 87.1582-31.7871L87.1582-38.5254C87.1582-40.4297 86.0352-41.8945 84.1797-42.2852L75.6348-44.3848C75.0977-46.0449 74.4141-47.5098 73.877-48.7305L78.418-56.2988C79.4434-57.9102 79.3457-59.7656 77.9785-61.1328L73.0469-65.9668C71.6797-67.1875 70.0195-67.4316 68.4082-66.5527L60.791-61.8652C59.4727-62.5488 57.959-63.1348 56.2988-63.6719L54.2969-72.3633C53.8574-74.2676 52.3926-75.4395 50.4395-75.4395L43.5547-75.4395C41.6016-75.4395 40.1367-74.2676 39.7461-72.3633L37.6953-63.7695C36.1328-63.2324 34.5215-62.6465 33.2031-61.9141L25.6348-66.5527C23.9746-67.4316 22.3145-67.2363 20.9473-65.9668L16.0156-61.1328C14.6484-59.7656 14.5508-57.9102 15.5762-56.2988L20.1172-48.7305C19.5801-47.5098 18.8965-46.0449 18.4082-44.3848L9.86328-42.2852C7.95898-41.8945 6.83594-40.4297 6.83594-38.5254L6.83594-31.7871C6.83594-29.7852 7.95898-28.3203 9.86328-27.9297L18.5059-25.8789C18.8965-24.4629 19.5312-22.9492 20.2148-21.582L15.6738-14.1602C14.5996-12.5488 14.7949-10.5469 16.1133-9.22852L20.9473-4.39453C22.2656-3.07617 24.1699-2.92969 25.7812-3.90625L33.252-8.49609C34.5703-7.8125 36.1328-7.22656 37.6953-6.68945L39.7461 1.85547C40.1367 3.75977 41.6016 4.93164 43.5547 4.93164ZM47.0215-21.8262C39.5996-21.8262 33.5938-27.9297 33.5938-35.3027C33.5938-42.627 39.5996-48.6816 47.0215-48.6816C54.3945-48.6816 60.4004-42.627 60.4004-35.3027C60.4004-27.9297 54.3945-21.8262 47.0215-21.8262Z"/>
  </g>
  <g id="Ultralight-S" transform="matrix(1 0 0 1 513.804 696)">
   <path class="SFSymbolsPreviewWireframe" d="M42.0562 3.84181L49.7583 3.84181C51.9385 3.84181 53.3579 2.66993 53.8882 0.356945L55.7085-7.41601C56.6841-7.81689 57.7437-8.17578 58.7476-8.58691L65.5825-4.26953C67.5083-3.02051 69.3672-3.2124 70.9126-4.75781L76.2915-10.1367C77.8823-11.7275 78.0776-13.5478 76.8218-15.5679L72.5078-22.3086C72.919-23.3579 73.2813-24.3721 73.6753-25.4248L81.5005-27.2485C83.8101-27.7754 84.9785-29.1948 84.9785-31.3784L84.9785-39.0249C84.9785-41.2017 83.8101-42.6211 81.5005-43.1479L73.6821-44.9751C73.2813-46.0449 72.9155-47.0557 72.5147-48.0947L76.8286-54.8457C78.0811-56.8203 77.8926-58.6758 76.2984-60.27L70.9126-65.6489C69.3638-67.1875 67.522-67.3862 65.5928-66.144L58.7476-61.8198C57.7471-62.231 56.6875-62.5898 55.7085-62.9907L53.8882-70.7739C53.3579-73.0869 51.9385-74.2588 49.7583-74.2588L42.0562-74.2588C39.876-74.2588 38.4566-73.0869 37.9297-70.7739L36.106-62.9976C35.043-62.5967 34.0674-62.2378 33.0215-61.8232L26.1797-66.144C24.2471-67.3862 22.4053-67.1909 20.8564-65.6489L15.4707-60.27C13.8765-58.6758 13.688-56.8203 14.9404-54.8457L19.2544-48.0947C18.8535-47.0557 18.4878-46.0449 18.0903-44.9751L10.3174-43.1479C8.00439-42.6211 6.83594-41.2017 6.83594-39.0249L6.83594-31.3784C6.83594-29.1948 8.00439-27.7754 10.3174-27.2485L18.0972-25.4248C18.4878-24.3721 18.8501-23.3579 19.2612-22.3086L14.9473-15.5679C13.6914-13.5478 13.8867-11.7275 15.4775-10.1367L20.8564-4.75781C22.4019-3.2124 24.2607-3.02051 26.1899-4.26953L33.0249-8.58691C34.0708-8.17578 35.043-7.81689 36.106-7.41601L37.9297 0.356945C38.4566 2.66993 39.876 3.84181 42.0562 3.84181ZM45.9316-21.2813C38.2827-21.2813 31.959-27.6118 31.959-35.2573C31.959-42.8086 38.3281-49.1357 45.9316-49.1357C53.5772-49.1357 59.9009-42.8086 59.9009-35.2573C59.9009-27.6118 53.5772-21.2813 45.9316-21.2813Z"/>
  </g>
 </g>
</svg>
